<?xml version="1.0" standalone="no"?>
<!DOCTYPE svg PUBLIC "-//W3C//DTD SVG 20010904//EN"
 "http://www.w3.org/TR/2001/REC-SVG-20010904/DTD/svg10.dtd">
<svg version="1.0" xmlns="http://www.w3.org/2000/svg"
 width="509.000000pt" height="339.000000pt" viewBox="0 0 509.000000 339.000000"
 preserveAspectRatio="xMidYMid meet">

<g transform="translate(0.000000,339.000000) scale(0.100000,-0.100000)"
fill="#000000" stroke="none">
<path d="M0 1695 l0 -1695 373 0 373 0 12 33 c7 18 12 46 12 61 0 15 4 25 9
21 6 -3 14 3 20 12 18 32 13 -32 -6 -72 -12 -25 -14 -38 -6 -46 8 -8 13 -2 18
23 11 51 24 62 47 41 11 -10 26 -30 34 -45 9 -18 23 -28 37 -28 20 0 22 4 19
40 -2 22 -8 40 -12 40 -5 0 -15 21 -24 46 -9 26 -27 62 -41 80 -31 40 -32 58
-5 49 20 -6 21 -4 14 45 -4 32 -2 72 6 106 13 55 29 79 31 50 2 -20 3 -25 17
-59 7 -16 12 -30 12 -32 0 -3 16 -29 35 -59 19 -30 42 -74 52 -98 9 -23 22
-52 28 -64 12 -25 125 -151 125 -140 0 4 -22 41 -49 82 -27 41 -53 89 -56 107
-4 17 -10 37 -14 42 -3 6 -6 12 -6 15 0 3 -22 56 -49 119 -44 103 -49 122 -49
190 0 89 19 168 64 268 34 77 51 94 23 24 -28 -70 -16 -125 60 -273 55 -106
102 -218 119 -283 11 -43 88 -173 115 -195 27 -22 34 -36 35 -64 1 -27 5 -36
19 -36 14 0 16 6 13 28 -19 111 -47 341 -65 525 -11 119 -25 238 -30 263 -9
41 -36 104 -43 104 -2 0 4 -31 14 -69 10 -38 22 -118 28 -178 6 -59 15 -151
21 -203 5 -52 12 -126 15 -165 3 -38 9 -81 13 -95 3 -14 7 -36 8 -50 0 -14 4
-33 9 -42 4 -10 3 -18 -1 -18 -21 1 -62 50 -93 113 -18 37 -36 67 -40 67 -4 0
-8 11 -9 26 -1 14 -6 33 -12 44 -5 10 -12 35 -16 54 -5 32 -28 90 -94 231 -49
105 -64 198 -41 256 5 15 8 30 5 33 -2 3 2 2 8 -4 18 -15 24 -12 24 9 0 11 -4
17 -8 15 -16 -10 -7 14 12 31 17 15 22 16 37 4 16 -13 17 -12 4 4 -13 17 -7
23 22 18 4 0 6 4 5 10 -4 15 115 85 186 109 77 25 233 51 263 44 13 -4 23 -12
23 -20 0 -8 7 -14 16 -14 8 0 13 4 10 8 -2 4 4 13 14 20 13 8 21 8 25 1 4 -6
12 -3 21 8 8 11 13 13 14 6 0 -7 7 -13 16 -13 8 0 12 -4 9 -10 -3 -5 0 -10 8
-10 8 0 26 -11 41 -25 15 -14 31 -25 37 -25 5 0 9 -4 9 -10 0 -5 10 -20 21
-31 24 -24 89 -146 89 -166 0 -7 5 -13 10 -13 6 0 10 6 10 14 0 8 4 17 9 20
14 9 41 -4 41 -19 0 -7 7 -18 15 -25 8 -7 15 -25 15 -41 0 -15 5 -31 11 -34 6
-4 8 -13 5 -20 -5 -13 12 -35 27 -35 5 0 3 7 -4 17 -13 15 -12 15 11 3 14 -8
28 -13 32 -12 4 1 5 -7 3 -17 -2 -10 6 -26 17 -36 19 -16 21 -16 15 0 -11 26
16 13 30 -16 7 -14 13 -18 13 -9 0 8 15 -7 32 -35 39 -60 46 -66 75 -58 13 3
23 1 23 -6 0 -5 9 -15 21 -21 19 -11 20 -10 10 9 -6 11 -16 23 -21 26 -6 3
-10 11 -10 16 0 20 21 -4 61 -67 31 -49 46 -63 59 -59 9 3 29 -4 43 -16 33
-25 36 -69 7 -108 -29 -42 -40 -104 -38 -231 l1 -115 8 110 c8 122 21 191 46
239 22 43 97 148 122 170 13 12 21 31 21 52 0 40 9 64 23 64 7 0 7 -4 -1 -12
-34 -34 8 -43 63 -13 25 13 43 20 40 15 -3 -4 1 -10 7 -13 10 -3 10 -11 0 -41
-8 -21 -11 -40 -9 -43 10 -10 26 7 32 36 6 30 50 68 73 63 6 -2 12 2 12 8 0 5
5 10 10 10 12 0 13 -37 1 -44 -5 -3 -11 -22 -13 -41 -6 -51 4 -33 56 99 26 65
67 157 92 205 l46 88 5 145 c4 97 2 151 -5 164 -9 15 -11 -3 -12 -82 0 -187
-46 -344 -135 -470 -56 -78 -65 -84 -58 -39 5 28 1 41 -16 59 l-22 24 34 28
c19 16 49 51 67 78 32 47 33 52 40 190 4 77 6 142 5 144 -1 1 -15 -37 -30 -85
-36 -116 -70 -187 -106 -221 -17 -16 -31 -35 -33 -44 -5 -38 -102 -95 -156
-93 -72 3 -104 7 -89 12 19 5 14 42 -8 58 -8 6 -20 28 -27 50 -12 34 -12 43 2
72 9 18 19 29 22 23 7 -11 49 29 48 45 0 6 9 15 21 21 12 6 25 15 29 19 4 5 0
4 -8 0 -10 -5 -8 -1 4 13 11 12 24 22 31 22 14 0 154 126 206 187 42 48 93
120 102 143 3 9 6 5 6 -11 1 -23 7 -27 39 -32 64 -11 302 -104 357 -141 29
-19 69 -38 90 -42 20 -3 49 -17 63 -29 34 -29 232 -79 232 -59 0 8 14 12 45
11 25 0 45 -4 45 -7 0 -11 89 -52 100 -45 7 4 15 3 19 -3 5 -8 22 -7 60 3 36
9 61 11 78 4 41 -15 135 -10 180 10 34 16 49 18 85 10 57 -13 128 5 121 31 -7
28 34 33 68 8 37 -28 111 -19 149 17 19 18 42 27 78 32 65 7 80 24 93 103 10
52 16 64 38 74 14 6 43 22 64 35 l37 23 0 994 0 994 -2545 0 -2545 0 0 -1695z
m2949 967 c53 -39 69 -132 62 -365 0 -30 7 -65 20 -93 28 -62 55 -174 64 -259
7 -77 15 -99 15 -42 0 40 13 48 29 20 6 -10 11 -14 11 -9 0 5 -7 17 -16 27
-13 14 -13 24 -4 60 7 24 17 51 24 61 10 14 14 6 24 -55 13 -78 17 -144 14
-224 -2 -59 -35 -107 -77 -115 -23 -5 -25 -2 -25 30 0 48 -6 38 -14 -23 -11
-78 -30 -163 -40 -172 -5 -4 -6 -3 -2 4 3 6 2 14 -4 18 -6 4 -8 11 -5 16 3 5
-1 6 -9 3 -9 -3 -16 -10 -16 -16 0 -5 5 -6 11 -3 6 4 5 -2 -3 -14 -21 -33 -36
-7 -15 28 21 36 22 61 1 61 -8 0 -13 4 -9 9 3 5 0 13 -6 16 -11 8 -40 -25 -33
-37 3 -5 0 -8 -5 -8 -6 0 -11 -10 -11 -22 0 -13 -7 -36 -15 -52 -8 -15 -13
-31 -10 -35 2 -4 -2 -25 -10 -47 -8 -21 -15 -32 -16 -24 -1 8 -3 27 -5 42 -1
15 1 30 7 33 5 4 9 11 9 16 0 6 -5 7 -12 3 -7 -5 -8 -3 -3 6 13 20 7 101 -10
126 -24 37 -49 46 -71 26 -10 -10 -28 -18 -39 -19 -11 -1 -35 -3 -53 -6 -25
-4 -34 -1 -43 14 -7 15 -7 24 2 35 10 12 4 14 -39 14 -28 0 -54 -5 -57 -10 -4
-6 -18 0 -37 15 -16 14 -34 25 -40 25 -7 0 -8 25 -3 78 4 42 6 104 6 138 -1
34 3 73 10 87 10 23 19 27 52 27 l40 0 -6 -36 c-4 -21 -1 -50 7 -68 18 -43
119 -135 155 -142 21 -5 29 -12 28 -25 -1 -10 -5 -19 -10 -19 -5 0 -6 7 -3 16
3 9 2 12 -5 9 -5 -4 -16 -1 -24 5 -12 10 -15 9 -15 -9 0 -12 6 -28 13 -37 51
-61 66 -74 81 -68 16 6 65 -37 94 -81 11 -18 12 -16 6 15 -6 36 -78 115 -94
105 -5 -3 -12 0 -16 6 -5 8 -2 10 7 5 8 -4 6 -1 -3 7 -10 8 -18 24 -18 36 0
17 6 21 33 21 68 1 152 60 177 125 18 45 28 147 18 176 -11 33 -59 69 -123 92
-40 15 -67 17 -139 13 -49 -3 -105 -12 -123 -18 -29 -10 -36 -10 -43 2 -8 13
-10 12 -10 -3 0 -10 -6 -20 -14 -23 -11 -4 -13 -12 -5 -31 14 -37 11 -51 -11
-58 -21 -7 -55 18 -46 33 9 14 -24 52 -45 52 -24 0 -80 40 -73 52 3 4 1 8 -5
8 -5 0 -12 -6 -14 -12 -3 -7 -6 -3 -6 10 -1 21 -2 22 -17 8 -20 -21 -21 -20
-20 7 1 12 -4 21 -11 20 -6 -1 -14 4 -17 13 -3 8 -2 12 4 9 14 -9 12 8 -2 24
-8 9 -8 11 -2 8 14 -8 27 20 14 28 -11 7 25 45 43 45 8 0 7 3 -3 9 -8 6 -18 7
-22 5 -8 -5 -10 0 -12 29 -1 6 -5 15 -11 19 -6 5 -5 8 2 8 7 0 10 7 7 15 -4 9
0 15 9 15 8 0 24 17 34 37 16 32 35 45 143 100 69 35 131 61 138 58 20 -7 104
14 124 32 18 16 42 9 33 -10 -3 -7 1 -2 10 10 l17 22 51 -20 c29 -11 63 -28
76 -37z m26 -533 c32 -28 35 -36 35 -86 0 -83 -18 -140 -59 -183 -75 -79 -195
-76 -277 6 -29 28 -42 49 -38 59 4 10 -2 24 -15 37 -12 11 -20 23 -16 26 3 4
10 1 14 -7 5 -7 11 -12 15 -12 19 3 26 0 26 -12 0 -22 35 -35 84 -32 62 5 109
15 101 23 -7 7 -12 8 -39 11 -15 1 -30 30 -21 40 3 3 10 -1 15 -9 7 -12 15
-11 48 4 23 11 49 15 61 11 34 -10 24 1 -29 36 -34 22 -46 35 -38 40 8 5 23
-1 38 -15 28 -26 60 -40 60 -27 0 17 -27 61 -33 54 -4 -3 -15 4 -26 15 -10 12
-23 22 -30 22 -6 0 -11 5 -11 10 0 7 7 7 21 0 11 -6 28 -9 37 -7 14 3 12 6 -8
15 -24 10 -23 11 12 11 28 1 46 -7 73 -30z m-143 -111 c-7 -7 -12 -8 -12 -2 0
14 12 26 19 19 2 -3 -1 -11 -7 -17z m-187 -18 c3 -6 -1 -7 -9 -4 -18 7 -21 14
-7 14 6 0 13 -4 16 -10z m-305 -80 c8 -5 11 -12 8 -16 -10 -9 -38 3 -38 16 0
12 10 13 30 0z m456 -423 c14 -8 24 -87 11 -87 -4 0 -3 -9 3 -20 9 -17 8 -20
-7 -20 -17 -1 -17 -1 0 -14 17 -13 24 -37 10 -34 -5 0 -16 -2 -26 -7 -14 -6
-15 -10 -6 -21 9 -11 8 -14 -4 -14 -8 0 -18 6 -21 13 -4 6 -4 2 -2 -10 3 -15
-1 -23 -10 -23 -8 0 -14 4 -14 9 0 8 -17 5 -72 -15 -9 -3 -19 -13 -21 -23 -3
-11 -5 -8 -6 7 0 12 6 25 14 28 15 6 21 25 8 23 -22 -4 -43 2 -43 12 0 7 9 9
21 6 17 -4 19 -3 10 6 -16 16 -13 27 6 20 13 -5 15 -2 10 11 -4 10 -3 15 3 11
6 -3 10 -2 10 4 0 13 -72 33 -106 29 -15 -2 -29 3 -31 9 -3 9 5 12 26 9 30 -3
58 14 44 27 -13 13 51 52 87 52 19 0 44 6 54 12 21 12 34 12 52 0z m221 -41
c-12 -14 -23 -23 -25 -21 -7 6 30 55 38 50 5 -3 -1 -16 -13 -29z m-481 -33
c-10 -10 -19 5 -10 18 6 11 8 11 12 0 2 -7 1 -15 -2 -18z m-16 -34 c0 -5 -9
-9 -20 -9 -11 0 -20 4 -20 8 0 4 9 8 20 9 11 1 20 -2 20 -8z m100 -125 c0 -8
-4 -12 -10 -9 -5 3 -10 10 -10 16 0 5 5 9 10 9 6 0 10 -7 10 -16z m-213 -488
c17 -25 39 -67 49 -93 10 -27 29 -57 42 -69 17 -14 22 -23 14 -28 -17 -11 -15
-29 3 -22 9 3 15 0 15 -8 0 -7 12 -16 28 -19 19 -4 31 -15 39 -37 11 -30 11
-31 -5 -17 -9 8 -34 22 -55 32 -22 10 -41 25 -45 34 -3 9 -11 20 -19 24 -18
11 -17 28 2 21 8 -4 15 -1 15 5 0 7 -6 14 -14 17 -8 3 -17 17 -21 32 -13 52
-47 121 -63 127 -26 10 -44 -24 -39 -73 4 -35 3 -40 -8 -26 -14 20 -5 85 16
111 8 9 9 14 3 10 -11 -6 -36 18 -47 47 -13 34 55 -18 90 -68z m358 -51 c-11
-8 -24 -18 -30 -22 -5 -5 -21 -6 -35 -4 -22 3 -20 5 20 21 56 22 71 24 45 5z
m-335 -36 c0 -6 -4 -7 -10 -4 -5 3 -10 11 -10 16 0 6 5 7 10 4 6 -3 10 -11 10
-16z m463 4 c-2 -10 -16 -27 -31 -38 -27 -19 -27 -19 -12 0 21 29 43 55 46 55
1 0 0 -8 -3 -17z m-226 1 c-3 -3 -12 -4 -19 -1 -8 3 -5 6 6 6 11 1 17 -2 13
-5z m-42 -24 c3 -5 1 -10 -4 -10 -6 0 -11 5 -11 10 0 6 2 10 4 10 3 0 8 -4 11
-10z m-275 -67 c0 -5 -5 -15 -10 -23 -8 -12 -10 -11 -10 8 0 12 5 22 10 22 6
0 10 -3 10 -7z m-1609 -205 c51 -17 50 -13 33 -155 -8 -62 -34 -59 -34 4 0 34
-7 55 -26 80 -18 24 -24 41 -20 59 7 28 4 27 47 12z"/>
<path d="M1808 1103 c7 -3 16 -2 19 1 4 3 -2 6 -13 5 -11 0 -14 -3 -6 -6z"/>
<path d="M1785 870 c24 -183 35 -276 39 -335 5 -61 16 -158 32 -293 2 -23 5
-87 5 -142 l1 -100 33 0 c30 0 32 2 29 33 -7 80 -13 124 -18 147 -3 14 -8 45
-11 70 -9 74 -24 160 -30 169 -3 5 -10 56 -15 113 -13 119 -11 111 -39 248
-23 111 -34 148 -26 90z"/>
<path d="M2025 673 c3 -31 10 -62 15 -68 5 -7 7 -15 3 -18 -3 -4 -1 -7 6 -7 6
0 11 -6 9 -12 -5 -22 31 -98 46 -98 9 0 12 -7 9 -19 -2 -10 3 -25 11 -34 9 -8
16 -20 16 -26 0 -6 5 -11 10 -11 17 0 11 28 -22 97 -18 38 -33 73 -34 78 -5
22 -27 82 -40 108 -8 16 -14 37 -14 48 0 10 -5 19 -10 19 -7 0 -8 -21 -5 -57z"/>
<path d="M3684 623 c2 -15 8 -29 13 -30 6 -2 8 7 5 22 -6 35 -21 42 -18 8z"/>
<path d="M4903 631 c-61 -8 -107 -38 -111 -74 -2 -14 -9 -31 -17 -37 -18 -15
-172 -15 -210 0 -16 6 -70 13 -118 16 l-88 4 7 -52 c4 -31 26 -90 51 -140 43
-88 52 -133 33 -169 -8 -14 -7 -27 5 -48 8 -17 20 -53 26 -81 l11 -50 299 0
299 0 0 320 0 320 -67 -1 c-38 -1 -91 -5 -120 -8z"/>
<path d="M2160 370 c-13 -9 -13 -12 1 -23 9 -6 21 -28 28 -47 15 -46 37 -74
51 -65 8 5 6 13 -6 26 -13 15 -14 19 -3 19 10 1 9 4 -3 11 -10 5 -18 16 -18
22 0 7 -9 19 -19 26 -11 8 -17 20 -14 28 6 16 3 16 -17 3z"/>
<path d="M3742 242 c-23 -89 -24 -109 -3 -115 16 -4 18 0 15 30 -2 18 0 32 4
29 7 -4 8 92 0 99 -2 2 -9 -17 -16 -43z"/>
<path d="M3892 188 c-37 -65 -57 -193 -29 -182 9 3 19 15 22 26 4 10 31 47 61
80 64 71 60 103 -5 37 -51 -52 -53 -43 -5 25 l36 51 -46 -45 c-52 -50 -58 -47
-20 10 15 22 25 43 22 46 -3 3 -20 -19 -36 -48z"/>
<path d="M3693 114 c-7 -3 -9 -12 -6 -20 3 -8 0 -14 -6 -14 -9 0 -9 -5 -1 -21
7 -11 9 -23 6 -27 -3 -3 -6 1 -6 9 0 11 -2 11 -10 -1 -18 -28 -11 -40 25 -40
31 0 35 3 40 34 13 65 -3 96 -42 80z"/>
<path d="M2701 84 c0 -11 3 -14 6 -6 3 7 2 16 -1 19 -3 4 -6 -2 -5 -13z"/>
<path d="M4114 63 c-16 -21 -35 -44 -43 -51 -13 -10 -12 -12 6 -12 13 0 30 16
51 50 36 58 26 67 -14 13z"/>
<path d="M3931 29 c-24 -20 -23 -36 2 -26 11 4 33 49 24 47 -1 -1 -13 -10 -26
-21z"/>
</g>
</svg>
